# Blender v2.79 (sub 0) OBJ File: ''
# www.blender.org
mtllib untitled.mtl
o Cube
v 3.455440 -0.073510 -5.183679
v 3.455440 -0.073510 5.183680
v 3.455442 5.189141 -5.183677
v 3.455438 5.189141 5.183682
v 3.455440 -0.073510 3.807854
v 3.455438 5.189141 3.807857
v 3.455440 -0.073510 1.370214
v 3.455440 5.189141 1.370217
v 3.455441 4.020732 -5.183677
v 3.455438 4.020732 5.183682
v 3.455439 4.020732 3.807856
v 3.455440 4.020732 1.370216
v 3.455440 -0.014710 3.807854
v 3.455440 -0.014710 1.370214
v 3.455440 -0.014710 -5.183679
v 3.455440 -0.014710 5.183680
v 3.455440 -0.073510 -3.049568
v 3.455441 5.189141 -3.049566
v 3.455441 4.020732 -3.049566
v 3.455440 -0.014710 -3.049568
v 3.455440 -0.073510 -0.583721
v 3.455440 5.189141 -0.583718
v 3.455440 4.020732 -0.583719
v 3.455440 -0.014710 -0.583721
v 3.455441 1.647858 -5.183679
v 3.455440 1.647858 5.183681
v 3.455440 1.647858 3.807854
v 3.455440 1.647858 1.370215
v 3.455441 1.647858 -3.049567
v 3.455440 1.647858 -0.583720
v 3.340378 4.020732 3.807856
v 3.340379 4.020732 1.370216
v 3.340379 -0.014710 3.807854
v 3.340379 -0.014710 1.370214
v 3.340379 1.647858 1.370215
v 3.340379 1.647858 3.807854
v 3.340380 4.020735 -4.593128
v 3.340381 -0.014707 -4.593131
v 3.340378 4.020732 3.807856
v 3.340379 -0.014710 3.807854
v 3.340380 4.020735 -4.593128
v 3.340381 -0.014707 -4.593131
v 3.340378 4.020731 4.871567
v 3.340379 -0.014710 4.871565
v 3.455441 1.647858 -5.183679
v 3.455440 1.647858 5.183681
v 3.455440 1.647858 3.807854
v 3.455440 1.647858 1.370215
v 3.455441 1.647858 -3.049567
v 3.455440 1.647858 -0.583720
v 3.340379 1.647858 3.807854
v 3.340379 1.647858 1.370215
v 3.455440 -0.073510 -0.583721
v 3.455440 5.189141 -0.583718
v 3.455440 4.020732 -0.583719
v 3.455440 -0.014710 -0.583721
v 3.455440 1.647858 -0.583720
v 3.455440 1.647858 -0.583720
v 3.455440 -0.073510 -3.056818
v 3.455441 5.189141 -3.056815
v 3.455441 4.020732 -3.056816
v 3.455440 -0.014710 -3.056818
v 3.455441 1.647858 -3.056817
v 3.455441 1.647858 -3.056817
v 3.455440 1.647858 3.807854
v 3.455440 1.647858 1.370215
v 3.455441 1.647858 -3.049567
v 3.455440 1.647858 -0.583720
v 3.455441 1.647858 -5.183679
v 3.455440 1.647858 5.183681
v 3.340379 1.647858 1.370215
v 3.340379 1.647858 3.807854
v 3.455440 1.647858 -0.583720
v 3.455441 1.647858 -3.056817
v 3.455441 4.029991 -5.183677
v 3.455438 4.029991 5.183682
v 3.455439 4.029991 3.807856
v 3.455440 4.029991 1.370216
v 3.455441 4.029991 -3.049566
v 3.455440 4.029991 -0.583719
v 3.455440 4.029991 -0.583719
v 3.455441 4.029991 -3.056816
v 3.455440 -0.073510 -3.064513
v 3.455441 5.189141 -3.064510
v 3.455441 4.020732 -3.064511
v 3.455440 -0.014710 -3.064513
v 3.455441 1.647858 -3.064512
v 3.455441 1.647858 -3.064512
v 3.455441 1.647858 -3.064512
v 3.455441 4.029991 -3.064511
v 3.455440 -0.073510 -0.583721
v 3.455440 5.189141 -0.583718
v 3.455440 4.020732 -0.583719
v 3.455440 -0.014710 -0.583721
v 3.455440 1.647858 -0.583720
v 3.455440 1.647858 -0.583720
v 3.455440 1.647858 -0.583720
v 3.455440 4.029991 -0.583719
v 3.455440 4.029991 -0.583719
v 3.455440 4.020732 -0.583719
v 3.455440 1.647858 -0.583720
v 3.455440 -0.014710 -0.583721
v 3.455440 -0.073510 -0.583721
v 3.455440 1.647858 -0.583720
v 3.455440 5.189141 -0.583718
v 3.455440 1.647858 -0.583720
vn 1.0000 0.0000 0.0000
vn 0.0000 0.0000 1.0000
vn 0.0000 1.0000 0.0000
vn 0.0000 0.0000 -1.0000
vn 0.0000 -1.0000 -0.0000
vn -1.0000 -0.0000 -0.0000
usemtl Material
s off
f 77//1 6//1 4//1 76//1
f 78//1 8//1 6//1 77//1
f 80//1 22//1 8//1 78//1
f 50//1 23//1 12//1 48//1
f 47//1 11//1 10//1 46//1
f 5//1 13//1 16//1 2//1
f 7//1 14//1 13//1 5//1
f 21//1 24//1 14//1 7//1
f 59//1 62//1 20//1 17//1
f 82//1 60//1 18//1 79//1
f 53//2 56//2 24//2 21//2
f 81//2 54//2 22//2 80//2
f 38//2 37//2 41//2 42//2
f 65//2 27//2 26//2 70//2
f 68//2 30//2 28//2 66//2
f 47//2 27//2 36//2 51//2
f 66//2 28//2 35//2 71//2
f 48//2 12//2 32//2 52//2
f 13//3 14//3 34//3 33//3
f 65//4 13//4 33//4 72//4
f 12//5 11//5 31//5 32//5
f 31//2 33//2 40//2 39//2
f 39//6 40//6 44//6 43//6
f 28//2 48//2 52//2 35//2
f 11//4 47//4 51//4 31//4
f 27//2 47//2 46//2 26//2
f 30//2 50//2 48//2 28//2
f 99//2 105//2 54//2 81//2
f 103//2 102//2 56//2 53//2
f 90//1 84//1 60//1 82//1
f 83//1 86//1 62//1 59//1
f 86//1 89//1 74//1 62//1
f 102//2 101//2 73//2 56//2
f 27//2 65//2 72//2 36//2
f 14//2 66//2 71//2 34//2
f 24//1 68//1 66//1 14//1
f 13//1 65//1 70//1 16//1
f 62//1 74//1 67//1 20//1
f 56//6 73//6 68//6 24//6
f 23//1 80//1 78//1 12//1
f 12//1 78//1 77//1 11//1
f 11//1 77//1 76//1 10//1
f 9//1 75//1 90//1 85//1
f 15//1 69//1 89//1 86//1
f 1//1 15//1 86//1 83//1
f 45//1 9//1 85//1 88//1
f 75//1 3//1 84//1 90//1
f 69//2 25//2 87//2 89//2
f 25//2 45//2 88//2 87//2
f 20//1 67//1 97//1 94//1
f 17//1 20//1 94//1 91//1
f 79//1 18//1 92//1 98//1
l 61 19
l 79 19
l 55 23
l 49 29
l 57 30
l 63 29
l 34 32
l 34 38
l 37 32
l 19 49
l 58 50
l 64 49
l 100 55
l 106 57
l 104 58
l 58 57
l 81 55
l 55 58
l 85 61
l 87 63
l 88 64
l 64 63
l 82 61
l 61 64
l 29 67
l 57 73
l 63 74
l 19 93
l 29 95
l 49 96
l 99 100
l 100 104
l 106 101
l 104 106
l 98 93
l 93 96
l 95 97
l 96 95
